<svg width="179" height="91" viewBox="0 0 179 91" fill="none" xmlns="http://www.w3.org/2000/svg">
    <rect y="21" width="41" height="9" rx="4.5" fill="#042825"/>
    <rect x="5" y="39" width="32" height="10" rx="5" fill="#042825"/>
    <rect y="58" width="41" height="10" rx="5" fill="#042825"/>
    <path d="M67.331 68.67C62.775 68.67 58.7773 67.665 55.338 65.655C51.9433 63.645 49.308 60.831 47.432 57.213C45.556 53.5503 44.618 49.2623 44.618 44.349C44.618 40.6417 45.154 37.314 46.226 34.366C47.298 31.3733 48.8167 28.8273 50.782 26.728C52.792 24.584 55.1817 22.9537 57.951 21.837C60.765 20.6757 63.8917 20.095 67.331 20.095C71.9317 20.095 75.9293 21.1 79.324 23.11C82.7187 25.0753 85.354 27.867 87.23 31.485C89.106 35.103 90.044 39.3687 90.044 44.282C90.044 47.9893 89.508 51.3393 88.436 54.332C87.364 57.3247 85.823 59.893 83.813 62.037C81.8477 64.181 79.458 65.8337 76.644 66.995C73.8747 68.1117 70.7703 68.67 67.331 68.67ZM67.331 61.3C70.2343 61.3 72.691 60.63 74.701 59.29C76.7557 57.95 78.319 56.007 79.391 53.461C80.5077 50.915 81.066 47.8777 81.066 44.349C81.066 38.989 79.86 34.835 77.448 31.887C75.0807 28.939 71.7083 27.465 67.331 27.465C64.4723 27.465 62.0157 28.135 59.961 29.475C57.9063 30.7703 56.3207 32.691 55.204 35.237C54.132 37.7383 53.596 40.7757 53.596 44.349C53.596 49.6643 54.802 53.8183 57.214 56.811C59.626 59.8037 62.9983 61.3 67.331 61.3Z" fill="#F76C5E"/>
    <path d="M115.045 68.67C113.08 68.67 111.115 68.5137 109.149 68.201C107.184 67.933 105.33 67.5087 103.588 66.928C101.846 66.3027 100.283 65.5433 98.8985 64.65C98.0945 64.114 97.5361 63.4663 97.2235 62.707C96.9108 61.9477 96.7991 61.2107 96.8885 60.496C97.0225 59.7367 97.3128 59.089 97.7595 58.553C98.2508 57.9723 98.8538 57.615 99.5685 57.481C100.283 57.347 101.065 57.548 101.913 58.084C103.879 59.2453 105.956 60.094 108.144 60.63C110.333 61.166 112.633 61.434 115.045 61.434C118.574 61.434 121.142 60.8533 122.75 59.692C124.358 58.486 125.162 56.945 125.162 55.069C125.162 53.5057 124.582 52.2773 123.42 51.384C122.304 50.4907 120.361 49.7537 117.591 49.173L110.221 47.632C105.978 46.7387 102.807 45.2423 100.707 43.143C98.6528 40.999 97.6255 38.185 97.6255 34.701C97.6255 32.5123 98.0721 30.5247 98.9655 28.738C99.8588 26.9513 101.109 25.4103 102.717 24.115C104.37 22.8197 106.313 21.837 108.546 21.167C110.824 20.4523 113.326 20.095 116.05 20.095C118.73 20.095 121.276 20.43 123.688 21.1C126.1 21.77 128.267 22.7527 130.187 24.048C130.902 24.5393 131.371 25.1423 131.594 25.857C131.862 26.5717 131.929 27.2863 131.795 28.001C131.661 28.671 131.349 29.2517 130.857 29.743C130.366 30.2343 129.741 30.5247 128.981 30.614C128.267 30.7033 127.44 30.48 126.502 29.944C124.85 29.006 123.175 28.336 121.477 27.934C119.78 27.532 117.949 27.331 115.983 27.331C113.929 27.331 112.164 27.6213 110.69 28.202C109.216 28.7827 108.077 29.609 107.273 30.681C106.514 31.7083 106.134 32.9367 106.134 34.366C106.134 35.974 106.67 37.2693 107.742 38.252C108.814 39.19 110.646 39.927 113.236 40.463L120.539 42.004C124.961 42.942 128.244 44.416 130.388 46.426C132.577 48.436 133.671 51.116 133.671 54.466C133.671 56.61 133.225 58.553 132.331 60.295C131.483 62.037 130.232 63.5333 128.579 64.784C126.971 66.0347 125.028 66.995 122.75 67.665C120.472 68.335 117.904 68.67 115.045 68.67ZM157.313 68.67C155.348 68.67 153.382 68.5137 151.417 68.201C149.452 67.933 147.598 67.5087 145.856 66.928C144.114 66.3027 142.551 65.5433 141.166 64.65C140.362 64.114 139.804 63.4663 139.491 62.707C139.178 61.9477 139.067 61.2107 139.156 60.496C139.29 59.7367 139.58 59.089 140.027 58.553C140.518 57.9723 141.121 57.615 141.836 57.481C142.551 57.347 143.332 57.548 144.181 58.084C146.146 59.2453 148.223 60.094 150.412 60.63C152.601 61.166 154.901 61.434 157.313 61.434C160.842 61.434 163.41 60.8533 165.018 59.692C166.626 58.486 167.43 56.945 167.43 55.069C167.43 53.5057 166.849 52.2773 165.688 51.384C164.571 50.4907 162.628 49.7537 159.859 49.173L152.489 47.632C148.246 46.7387 145.074 45.2423 142.975 43.143C140.92 40.999 139.893 38.185 139.893 34.701C139.893 32.5123 140.34 30.5247 141.233 28.738C142.126 26.9513 143.377 25.4103 144.985 24.115C146.638 22.8197 148.581 21.837 150.814 21.167C153.092 20.4523 155.593 20.095 158.318 20.095C160.998 20.095 163.544 20.43 165.956 21.1C168.368 21.77 170.534 22.7527 172.455 24.048C173.17 24.5393 173.639 25.1423 173.862 25.857C174.13 26.5717 174.197 27.2863 174.063 28.001C173.929 28.671 173.616 29.2517 173.125 29.743C172.634 30.2343 172.008 30.5247 171.249 30.614C170.534 30.7033 169.708 30.48 168.77 29.944C167.117 29.006 165.442 28.336 163.745 27.934C162.048 27.532 160.216 27.331 158.251 27.331C156.196 27.331 154.432 27.6213 152.958 28.202C151.484 28.7827 150.345 29.609 149.541 30.681C148.782 31.7083 148.402 32.9367 148.402 34.366C148.402 35.974 148.938 37.2693 150.01 38.252C151.082 39.19 152.913 39.927 155.504 40.463L162.807 42.004C167.229 42.942 170.512 44.416 172.656 46.426C174.845 48.436 175.939 51.116 175.939 54.466C175.939 56.61 175.492 58.553 174.599 60.295C173.75 62.037 172.5 63.5333 170.847 64.784C169.239 66.0347 167.296 66.995 165.018 67.665C162.74 68.335 160.172 68.67 157.313 68.67Z" fill="#042825"/>
</svg>
